<?xml version="1.0" encoding="utf-8"?>
<!-- Generator: Adobe Illustrator 20.0.0, SVG Export Plug-In . SVG Version: 6.00 Build 0)  -->
<svg version="1.1" xmlns="http://www.w3.org/2000/svg" xmlns:xlink="http://www.w3.org/1999/xlink" x="0px" y="0px"
	 viewBox="0 0 595.3 841.9" style="enable-background:new 0 0 595.3 841.9;" xml:space="preserve">
<style type="text/css">
	.st0{fill:#DD4B27;}
	.st1{fill:#FFFFFF;}
	.st2{fill:#FBCB50;}
	.st3{display:none;}
	.st4{display:inline;fill:#2582C4;}
	.st5{display:inline;fill:#F08058;}
	.st6{display:inline;fill:#76B72D;}
	.st7{display:inline;fill:#F7A707;}
	.st8{display:inline;}
	.st9{fill:#2582C4;}
	.st10{fill:#76B72D;}
	.st11{fill:#F7A707;}
	.st12{fill:#F08058;}
</style>
<g id="Pardalet">
	<path class="st0" d="M415.7,497.7c15-26.7,19.5-54.7,19.5-54.7c0.6-6.4,1.2-12.7,1.8-19.1c-4.2-1.7-6.5,1.8-9.2,3.6
		c-28.1,19.1-57.6,20.7-88.4,7.3c-3.2-1.4-6.1-3.7-9.9-2.9c-1,1.4-2.2,2.7-3,4.2c-24.7,48.5-60.5,76.8-106.9,84.9
		c7.6,6.4,16.5,13,26.8,19.1c35.1,21,69.7,27.3,93.1,29.1C349.1,564.1,391.9,540.1,415.7,497.7z"/>
	<polygon class="st0" points="461,337.7 526.8,357.8 462.2,378.8 	"/>
	<circle class="st1" cx="376.7" cy="357.2" r="88.1"/>
	<path class="st2" d="M65.6,539c10.8-13,23.6-23.9,35.6-35.7c69.2-68,138.4-135.9,207.7-203.9c0.7-0.7,1.7-1.1,2.5-1.7
		c4,2.1,5.4,6.2,7.1,9.8c23.3,47.8,28.2,97.1,11.3,148c-25.3,54.5-65.3,92.1-124.5,106.9c-25.4,6.4-51.2,5.2-76.8,0.6
		c-4.4-0.8-8.8-1.6-13.2-2.3c-11.7-5.3-24.3-8.3-36.1-13.5C74.4,545.1,68.9,543.8,65.6,539z"/>
</g>
<g id="Regles">
	<g class="st3">
		<path class="st4" d="M283.2,311.4c-1.2,0-2.2-1-2.2-2.2V290c0-1.2,1-2.2,2.2-2.2s2.2,1,2.2,2.2v19.2
			C285.4,310.5,284.4,311.4,283.2,311.4z"/>
	</g>
	<g class="st3">
		<path class="st5" d="M296,292.2h-12.8c-1.2,0-2.2-1-2.2-2.2s1-2.2,2.2-2.2H296c1.2,0,2.2,1,2.2,2.2S297.2,292.2,296,292.2z"/>
	</g>
	<g class="st3">
		<path class="st6" d="M296,311.4h-12.8c-1.2,0-2.2-1-2.2-2.2s1-2.2,2.2-2.2H296c1.2,0,2.2,1,2.2,2.2S297.2,311.4,296,311.4z"/>
	</g>
	<g class="st3">
		<path class="st7" d="M294.1,301.8h-10.9c-1.2,0-2.2-1-2.2-2.2s1-2.2,2.2-2.2h10.9c1.2,0,2.2,1,2.2,2.2S295.3,301.8,294.1,301.8z"
			/>
	</g>
	<g class="st3">
		<path class="st7" d="M294.5,286l-11.5-4.1c-1.3-0.5-2-1.8-1.6-2.9c0.4-1.1,1.8-1.7,3.1-1.2l11.5,4.1c1.3,0.5,2,1.8,1.6,2.9
			C297.2,286,295.8,286.5,294.5,286z"/>
	</g>
	<g class="st3">
		<g class="st8">
			<path class="st9" d="M236.5,311.4c-0.3,0-0.7-0.1-1-0.2c-1.1-0.6-1.5-1.9-1-3l9.8-19.2c0.6-1.1,1.9-1.5,3-1c1.1,0.6,1.5,1.9,1,3
				l-9.8,19.2C238.1,311,237.3,311.4,236.5,311.4z"/>
		</g>
		<g class="st8">
			<path class="st10" d="M256,311.4c-0.8,0-1.6-0.4-2-1.2l-9.8-19.2c-0.6-1.1-0.1-2.4,1-3c1.1-0.6,2.4-0.1,3,1l9.8,19.2
				c0.6,1.1,0.1,2.4-1,3C256.7,311.4,256.3,311.4,256,311.4z"/>
		</g>
	</g>
	<g class="st3">
		<path class="st5" d="M253.8,307.2h-15.2c-1.2,0-2.2-1-2.2-2.2c0-1.2,1-2.2,2.2-2.2h15.2c1.2,0,2.2,1,2.2,2.2
			C256,306.2,255.1,307.2,253.8,307.2z"/>
	</g>
	<g class="st3">
		<g class="st8">
			<path class="st9" d="M361,311.4c-0.3,0-0.7-0.1-1-0.2c-1.1-0.6-1.5-1.9-1-3l9.8-19.2c0.6-1.1,1.9-1.5,3-1c1.1,0.6,1.5,1.9,1,3
				l-9.8,19.2C362.5,311,361.8,311.4,361,311.4z"/>
		</g>
		<g class="st8">
			<path class="st10" d="M380.5,311.4c-0.8,0-1.6-0.4-2-1.2l-9.8-19.2c-0.6-1.1-0.1-2.4,1-3c1.1-0.6,2.4-0.1,3,1l9.8,19.2
				c0.6,1.1,0.1,2.4-1,3C381.2,311.4,380.8,311.4,380.5,311.4z"/>
		</g>
	</g>
	<g class="st3">
		<path class="st5" d="M378.3,307.2h-15.2c-1.2,0-2.2-1-2.2-2.2c0-1.2,1-2.2,2.2-2.2h15.2c1.2,0,2.2,1,2.2,2.2
			C380.5,306.2,379.5,307.2,378.3,307.2z"/>
	</g>
	<g class="st3">
		<path class="st4" d="M328.1,301.3c-1.2,0-2.2-1-2.2-2.2c0-6.7,5.5-12.2,12.2-12.2c1.2,0,2.2,1,2.2,2.2s-1,2.2-2.2,2.2
			c-4.3,0-7.8,3.5-7.8,7.8C330.3,300.3,329.3,301.3,328.1,301.3z"/>
	</g>
	<g class="st3">
		<path class="st7" d="M338.1,311.3c-6.7,0-12.2-5.5-12.2-12.2c0-1.2,1-2.2,2.2-2.2s2.2,1,2.2,2.2c0,4.3,3.5,7.8,7.8,7.8
			c1.2,0,2.2,1,2.2,2.2S339.3,311.3,338.1,311.3z"/>
	</g>
	<g class="st3">
		<path class="st5" d="M338.1,311.3c-1.2,0-2.2-1-2.2-2.2s1-2.2,2.2-2.2c2,0,3.9-0.7,5.3-2.1c0.9-0.8,2.3-0.8,3.1,0.1
			c0.8,0.9,0.8,2.3-0.1,3.1C344.1,310.1,341.2,311.3,338.1,311.3z"/>
	</g>
	<g class="st3">
		<path class="st6" d="M345,294.1c-0.6,0-1.1-0.2-1.5-0.6c-1.5-1.4-3.4-2.2-5.4-2.2c-1.2,0-2.2-1-2.2-2.2s1-2.2,2.2-2.2
			c3.2,0,6.2,1.2,8.5,3.4c0.9,0.8,0.9,2.2,0.1,3.1C346.1,293.9,345.6,294.1,345,294.1z"/>
	</g>
	<g class="st3">
		<g class="st8">
			<path class="st9" d="M-849.5,381.4c-11.8,0-21.4-9.6-21.4-21.4c0-65.2,53.1-118.3,118.3-118.3c11.8,0,21.4,9.6,21.4,21.4
				s-9.6,21.4-21.4,21.4c-41.6,0-75.4,33.8-75.4,75.4C-828,371.8-837.6,381.4-849.5,381.4z"/>
		</g>
		<g class="st8">
			<path class="st11" d="M-752.6,478.3c-65.2,0-118.3-53.1-118.3-118.3c0-11.8,9.6-21.4,21.4-21.4s21.4,9.6,21.4,21.4
				c0,41.6,33.8,75.4,75.4,75.4c11.8,0,21.4,9.6,21.4,21.4S-740.7,478.3-752.6,478.3z"/>
		</g>
		<g class="st8">
			<path class="st12" d="M-752.6,478.3c-11.8,0-21.4-9.6-21.4-21.4s9.6-21.4,21.4-21.4c19.2,0,37.6-7.2,51.6-20.4
				c8.6-8.1,22.2-7.7,30.3,1c8.1,8.6,7.7,22.2-1,30.3C-693.6,466.9-722.4,478.3-752.6,478.3z"/>
		</g>
		<g class="st8">
			<path class="st10" d="M-685.4,311.6c-5.3,0-10.7-2-14.9-6c-14.1-13.6-32.7-21.1-52.3-21.1c-11.8,0-21.4-9.6-21.4-21.4
				s9.6-21.4,21.4-21.4c30.7,0,59.9,11.7,82,33.1c8.5,8.2,8.8,21.8,0.6,30.3C-674.2,309.4-679.8,311.6-685.4,311.6z"/>
		</g>
	</g>
	<g class="st3">
		<path class="st7" d="M320.1,311.4c-0.6,0-1.2-0.3-1.7-0.8l-16.3-19.2c-0.8-0.9-0.7-2.3,0.3-3.1c0.9-0.8,2.3-0.7,3.1,0.3l16.3,19.2
			c0.8,0.9,0.7,2.3-0.3,3.1C321.1,311.3,320.6,311.4,320.1,311.4z"/>
	</g>
	<g class="st3">
		<path class="st6" d="M320.1,311.4c-1.2,0-2.2-1-2.2-2.2V290c0-1.2,1-2.2,2.2-2.2s2.2,1,2.2,2.2v19.2
			C322.3,310.5,321.4,311.4,320.1,311.4z"/>
	</g>
	<g class="st3">
		<path class="st5" d="M303.8,311.4c-1.2,0-2.2-1-2.2-2.2V290c0-1.2,1-2.2,2.2-2.2c1.2,0,2.2,1,2.2,2.2v19.2
			C306,310.5,305,311.4,303.8,311.4z"/>
	</g>
	<g class="st3">
		<path class="st5" d="M352.9,311.4c-1.2,0-2.2-1-2.2-2.2V290c0-1.2,1-2.2,2.2-2.2s2.2,1,2.2,2.2v19.2
			C355.1,310.4,354.2,311.4,352.9,311.4z"/>
	</g>
	<g class="st3">
		<path class="st6" d="M263.9,311.4c-1.2,0-2.2-1-2.2-2.2V290c0-1.2,1-2.2,2.2-2.2s2.2,1,2.2,2.2v19.2
			C266.1,310.4,265.1,311.4,263.9,311.4z"/>
	</g>
	<g class="st3">
		<path class="st5" d="M275.3,311.4h-11.4c-1.2,0-2.2-1-2.2-2.2c0-1.2,1-2.2,2.2-2.2h11.4c1.2,0,2.2,1,2.2,2.2
			C277.5,310.4,276.5,311.4,275.3,311.4z"/>
	</g>
	<g class="st3">
		<g class="st8">
			<path class="st10" d="M611.9,519.5c-7.7,0-14-6.3-14-14V383.7c0-7.7,6.3-14,14-14c7.7,0,14,6.3,14,14v121.8
				C625.9,513.2,619.7,519.5,611.9,519.5z"/>
		</g>
		<g class="st8">
			<path class="st12" d="M684,519.5h-72.1c-7.7,0-14-6.3-14-14c0-7.7,6.3-14,14-14H684c7.7,0,14,6.3,14,14
				C698,513.2,691.8,519.5,684,519.5z"/>
		</g>
	</g>
	<g class="st3">
		<path class="st7" d="M221.6,311.5c-0.8,0-1.6-0.5-2-1.3l-8.9-19.2c-0.5-1.1,0-2.4,1.1-2.9c1.1-0.5,2.4,0,2.9,1.1l8.9,19.2
			c0.5,1.1,0,2.4-1.1,2.9C222.2,311.4,221.9,311.5,221.6,311.5z"/>
	</g>
	<g class="st3">
		<path class="st4" d="M221.6,311.5c-0.3,0-0.6-0.1-0.9-0.2c-1.1-0.5-1.6-1.8-1.1-2.9l8.9-19.2c0.5-1.1,1.8-1.6,2.9-1.1
			c1.1,0.5,1.6,1.8,1.1,2.9l-8.9,19.2C223.2,311,222.4,311.5,221.6,311.5z"/>
	</g>
</g>
</svg>
