<?xml version="1.0" encoding="utf-8"?>
<!-- Generator: Adobe Illustrator 20.0.0, SVG Export Plug-In . SVG Version: 6.00 Build 0)  -->
<svg version="1.1" xmlns="http://www.w3.org/2000/svg" xmlns:xlink="http://www.w3.org/1999/xlink" x="0px" y="0px"
	 viewBox="0 0 595.3 841.9" style="enable-background:new 0 0 595.3 841.9;" xml:space="preserve">
<style type="text/css">
	.st0{fill:#DE6D0F;}
	.st1{fill:#FFFFFF;}
	.st2{fill:#8DB24B;}
	.st3{fill:#7F75B5;}
	.st4{fill:#53A0D8;}
	.st5{fill:#0F7CBC;}
	.st6{fill:#5F519D;}
	.st7{fill:#9ABC54;}
	.st8{fill:#4D7F45;}
	.st9{display:none;fill:#F4AC40;}
	.st10{fill:#DD4B27;}
	.st11{fill:#FBCB50;}
	.st12{fill:#EBB35A;}
	.st13{fill:#E09251;}
	.st14{fill:#5F509D;}
	.st15{display:none;}
	.st16{display:inline;fill:#2582C4;}
	.st17{display:inline;fill:#F08058;}
	.st18{display:inline;fill:#76B72D;}
	.st19{display:inline;fill:#F7A707;}
	.st20{display:inline;}
	.st21{fill:#2582C4;}
	.st22{fill:#76B72D;}
	.st23{fill:#F7A707;}
	.st24{fill:#F08058;}
</style>
<g id="Mapa_ciutat">
	<g id="Port">
		<rect x="413.4" y="333" class="st0" width="44.4" height="21.1"/>
		<path class="st0" d="M447.2,299.2v44.4c0,5.8,4.7,10.6,10.6,10.6l0,0c5.8,0,10.6-4.7,10.6-10.6v-44.4c0-5.8-4.7-10.6-10.6-10.6
			l0,0C451.9,288.7,447.2,293.4,447.2,299.2z"/>
		<path class="st0" d="M438.7,299.2H463c2.9,0,5.3-2.4,5.3-5.3l0,0c0-2.9-2.4-5.3-5.3-5.3h-24.3c-2.9,0-5.3,2.4-5.3,5.3l0,0
			C433.4,296.9,435.8,299.2,438.7,299.2z"/>
		
			<rect x="406" y="266.5" transform="matrix(-1 -1.224647e-16 1.224647e-16 -1 886.9615 543.5237)" class="st0" width="75" height="10.6"/>
		<path class="st0" d="M486.3,307.7v-35.9c0-2.9-2.4-5.3-5.3-5.3h0c-2.9,0-5.3,2.4-5.3,5.3v35.9c0,2.9,2.4,5.3,5.3,5.3h0
			C483.9,313,486.3,310.6,486.3,307.7z"/>
	</g>
	<g id="Barris">
		
			<rect x="188.1" y="235.1" transform="matrix(0.7071 -0.7071 0.7071 0.7071 -121.3616 264.9995)" class="st0" width="142.3" height="87.7"/>
		
			<rect x="245.7" y="211.3" transform="matrix(0.7071 -0.7071 0.7071 0.7071 -81.7982 259.1817)" class="st1" width="52.6" height="34.1"/>
		
			<rect x="101.4" y="131.7" transform="matrix(0.7071 -0.7071 0.7071 0.7071 -76.7359 187.048)" class="st0" width="172.1" height="108.9"/>
		<path class="st0" d="M468.3,302.7"/>
		<polygon class="st0" points="468.3,302.4 468.3,293.9 463,293.9 465.1,303.5 		"/>
		<polygon class="st2" points="424.8,326.1 424.8,302.2 361,238.4 336.1,263.4 424.8,352.2 424.8,326.1 		"/>
		<path class="st3" d="M361.3,238.9l-87.7,87.7L425,478c0-58.5,0-117.1,0-175.6C403.8,281.2,382.5,260.1,361.3,238.9z"/>
		<path class="st3" d="M428.2,309.8"/>
		<rect x="380.9" y="435.7" class="st3" width="44.1" height="66.4"/>
		<circle class="st0" cx="457.2" cy="343.1" r="11.1"/>
		<circle class="st0" cx="480.5" cy="272.3" r="5.8"/>
	</g>
	<g id="Albufera">
		<circle class="st4" cx="327.3" cy="428.5" r="73.3"/>
	</g>
	<g id="Torre">
		<polygon class="st5" points="337.1,87.1 380.5,130.4 424.8,174.8 360.7,238.9 273,151.2 		"/>
		<path class="st4" d="M354.9,196c-7.4-7.4-8.2-18.7-1.7-25.2l0,0l0.3-0.3c6.5-6.5,17.8-5.8,25.2,1.7l28.1,28.1
			c7.4,7.4,8.2,18.7,1.7,25.2l-0.3,0.3c-6.5,6.5-17.8,5.8-25.2-1.7L354.9,196z"/>
		
			<rect x="285.8" y="138.1" transform="matrix(0.7071 -0.7071 0.7071 0.7071 -20.1303 249.3853)" class="st1" width="10.4" height="21.7"/>
		
			<rect x="300.7" y="123.2" transform="matrix(0.7071 -0.7071 0.7071 0.7071 -5.1808 255.5776)" class="st1" width="10.4" height="21.7"/>
		
			<rect x="315.7" y="108.2" transform="matrix(0.7071 -0.7071 0.7071 0.7071 9.785 261.7766)" class="st1" width="10.4" height="21.7"/>
		
			<rect x="330.7" y="93.2" transform="matrix(0.7071 -0.7071 0.7071 0.7071 24.8366 268.0112)" class="st1" width="10.4" height="21.7"/>
	</g>
	<polygon class="st6" points="424.8,174.7 361,238.4 424.8,302.2 	"/>
	<g id="Riu">
		<path class="st7" d="M266,208.1c-15.1,0-27.3-12.2-27.3-27.3c0-5.5,1.6-10.5,4.4-14.8l-104,104c-9.3,9.3-9.3,24.3,0,33.6
			c9.3,9.3,24.3,9.3,33.6,0l95.4-95.4l-0.2-0.2C267.3,208,266.7,208.1,266,208.1z"/>
		<path class="st7" d="M402.1,278.9L288.7,165.6c2.9,4.4,4.6,9.6,4.6,15.2c0,14.3-11.1,26.1-25.1,27.2l-0.2,0.2l102.4,102.4
			c8.7,8.7,22.9,8.7,31.6,0C410.8,301.8,410.8,287.7,402.1,278.9z"/>
		<path class="st7" d="M267.9,208l0.2,0.2l0.2-0.2C268.1,208,268,208,267.9,208z"/>
		<path class="st8" d="M288.7,165.6c-2-3-4.6-5.6-7.7-7.6c0.3,0.3,0.6,0.5,0.9,0.8L288.7,165.6z"/>
		<path class="st8" d="M249.7,159.5c0.2-0.2,0.4-0.5,0.6-0.7c0.4-0.4,0.8-0.7,1.2-1.1c-3.4,2.1-6.2,4.9-8.4,8.3l5.8-5.8
			C249.2,159.9,249.4,159.7,249.7,159.5z"/>
		<path class="st8" d="M266,208.1c0.6,0,1.2-0.1,1.9-0.1l-17.6-17.6c-8.5-8.5-8.7-22.1-0.6-30.9c-0.2,0.2-0.5,0.4-0.7,0.6l-5.8,5.8
			c-2.8,4.3-4.4,9.3-4.4,14.8C238.7,195.9,250.9,208.1,266,208.1z"/>
		<path class="st8" d="M282.5,160.1c9.3,9.3,9.3,24.3,0,33.6L268.2,208c14.1-1.1,25.1-12.9,25.1-27.2c0-5.6-1.7-10.9-4.6-15.2
			l-6.8-6.8c-0.3-0.3-0.6-0.5-0.9-0.8c-2.2-1.5-4.7-2.6-7.3-3.4C276.9,155.7,279.9,157.6,282.5,160.1z"/>
		<path class="st8" d="M249.7,159.5c1.4-1.3,2.9-2.3,4.4-3.2c-0.9,0.4-1.7,0.9-2.6,1.4c-0.4,0.4-0.8,0.7-1.2,1.1
			C250.1,159,249.9,159.3,249.7,159.5z"/>
		<path class="st8" d="M282.5,160.1c-2.6-2.6-5.6-4.4-8.8-5.5c-2.4-0.7-5-1.1-7.7-1.1c-4.3,0-8.3,1-11.9,2.8c-1.6,0.9-3.1,2-4.4,3.2
			c-8.1,8.8-7.9,22.4,0.6,30.9l17.6,17.6c0.1,0,0.2,0,0.3,0l14.3-14.3C291.8,184.4,291.8,169.4,282.5,160.1z"/>
	</g>
</g>
<g id="Pardalet">
	<path class="st9" d="M355.6,441.3c2.7,0.3,5.4-0.5,8.1,0.5c-2.9,1.4-5.7,2.8-8.6,4.2C355.3,444.4,355.5,442.9,355.6,441.3z"/>
	<path class="st10" d="M341,480.8c4.3-7.7,5.6-15.7,5.6-15.7c0.2-1.8,0.4-3.7,0.5-5.5c-1.2-0.5-1.9,0.5-2.6,1
		c-8.1,5.5-16.5,5.9-25.4,2.1c-0.9-0.4-1.7-1.1-2.8-0.8c-0.3,0.4-0.6,0.8-0.9,1.2c-7.1,13.9-17.4,22.1-30.7,24.4
		c2.2,1.8,4.7,3.7,7.7,5.5c10.1,6,20,7.8,26.7,8.4C321.9,499.8,334.2,492.9,341,480.8z"/>
	<path class="st9" d="M355.6,441.3c-0.3-2.2-0.6-4.3-0.9-6.5c5.9,1.9,11.7,3.7,18.2,5.8c-3.4,0.8-6.5-0.4-9.2,1.2
		C361,441.9,358.2,442.9,355.6,441.3z"/>
	<polygon class="st10" points="354,434.8 372.9,440.6 354.4,446.6 	"/>
	<circle class="st1" cx="329.8" cy="440.4" r="25.3"/>
	<path class="st11" d="M240.5,492.6c3.1-3.7,6.8-6.9,10.2-10.3c19.9-19.5,39.7-39,59.6-58.5c0.2-0.2,0.5-0.3,0.7-0.5
		c1.1,0.6,1.5,1.8,2.1,2.8c6.7,13.7,8.1,27.9,3.2,42.5c-7.3,15.6-18.7,26.4-35.8,30.7c-7.3,1.8-14.7,1.5-22,0.2
		c-1.3-0.2-2.5-0.5-3.8-0.7c-3.4-1.5-7-2.4-10.4-3.9C243,494.4,241.5,494,240.5,492.6z"/>
</g>
<g id="Palmera">
	<path class="st12" d="M234.7,216.5l-32.5-32.5c-2.1-2.1-5.4-2.1-7.5,0h0c-2.1,2.1-2.1,5.4,0,7.5l32.5,32.5c2.1,2.1,5.4,2.1,7.5,0v0
		C236.8,221.9,236.8,218.6,234.7,216.5z"/>
	<path class="st8" d="M176.6,191.8c-6.8,6.8-9,16.3-6.8,25l31.8-31.8C192.9,182.8,183.3,185.1,176.6,191.8z"/>
	<path class="st8" d="M186.9,203.9c0,12.3,6.6,23,16.5,28.8v-57.6C193.5,180.9,186.9,191.6,186.9,203.9z"/>
	<path class="st8" d="M179.4,171.8c-9.6,0-17.9,5.2-22.5,12.8h44.9C197.3,177,189,171.8,179.4,171.8z"/>
	<path class="st8" d="M199.1,169.3c-6.8,6.8-9,16.3-6.8,25l31.8-31.8C215.4,160.3,205.8,162.6,199.1,169.3z"/>
	<path class="st8" d="M189.1,169.3c0,7.8,4.2,14.6,10.5,18.3V151C193.3,154.7,189.1,161.5,189.1,169.3z"/>
	<path class="st8" d="M208.5,173.7c-7.8,0-14.6,4.2-18.3,10.5h36.6C223.2,177.9,216.3,173.7,208.5,173.7z"/>
	<path class="st8" d="M204.8,182.1c-4.4-4.4-10.5-5.8-16.1-4.4l20.5,20.5C210.6,192.6,209.1,186.5,204.8,182.1z"/>
</g>
<g id="Plantes">
	<g>
		<path class="st12" d="M329.5,238.2c3.9-3.9,5.3-9.2,4.2-14l-18.2,18.2C320.3,243.6,325.7,242.1,329.5,238.2z"/>
		<path class="st8" d="M319.8,228.5c-3.9,3.9-5.3,9.2-4.2,14l18.2-18.2C329,223.2,323.7,224.6,319.8,228.5z"/>
		<path class="st12" d="M328.5,247.7c5.5,0,10.3-2.1,12.9-5.2h-25.8C318.2,245.6,323,247.7,328.5,247.7z"/>
		<path class="st8" d="M328.5,237.3c-5.5,0-10.3,2.1-12.9,5.2h25.8C338.8,239.4,334,237.3,328.5,237.3z"/>
		<path class="st12" d="M321.8,230.6c0-5.5-2.1-10.3-5.2-12.9v25.8C319.7,240.9,321.8,236.1,321.8,230.6z"/>
		<path class="st8" d="M311.5,230.6c0,5.5,2.1,10.3,5.2,12.9v-25.8C313.5,220.3,311.5,225.1,311.5,230.6z"/>
	</g>
	<g>
		<path class="st12" d="M189.5,253.6c-3.8-3.8-9.1-5.3-13.9-4.2l18.1,18.1C194.8,262.8,193.3,257.5,189.5,253.6z"/>
		<path class="st8" d="M179.9,263.3c3.8,3.8,9.1,5.3,13.9,4.2l-18.1-18.1C174.6,254.2,176,259.5,179.9,263.3z"/>
		<path class="st12" d="M198.8,254.7c0-5.4-2.1-10.2-5.1-12.8v25.5C196.8,264.9,198.8,260.1,198.8,254.7z"/>
		<path class="st8" d="M188.6,254.7c0,5.4,2.1,10.2,5.1,12.8v-25.5C190.7,244.5,188.6,249.2,188.6,254.7z"/>
		<path class="st12" d="M182,261.3c-5.4,0-10.2,2.1-12.8,5.1h25.5C192.2,263.4,187.4,261.3,182,261.3z"/>
		<path class="st8" d="M182,271.5c5.4,0,10.2-2.1,12.8-5.1h-25.5C171.8,269.5,176.5,271.5,182,271.5z"/>
	</g>
</g>
<g id="Micalet_1_">
	
		<rect x="234.2" y="55.3" transform="matrix(0.7071 -0.7071 0.7071 0.7071 27.1198 235.4089)" class="st12" width="127" height="59.3"/>
	
		<rect x="337.4" y="23.2" transform="matrix(0.7071 -0.7071 0.7071 0.7071 82.1529 258.2043)" class="st12" width="30.7" height="13.4"/>
	
		<rect x="352.9" y="17.1" transform="matrix(0.7071 -0.7071 0.7071 0.7071 93.8652 263.0557)" class="st12" width="23.1" height="2.2"/>
	<path class="st13" d="M325.8,50.7l-13,13c-2.3,2.3-6,2.3-8.2,0v0c-2.3-2.3-2.3-6,0-8.2l13-13c2.3-2.3,6-2.3,8.2,0v0
		C328.1,44.7,328.1,48.4,325.8,50.7z"/>
	<path class="st13" d="M340.3,65.1l-13,13c-2.3,2.3-6,2.3-8.2,0v0c-2.3-2.3-2.3-6,0-8.2l13-13c2.3-2.3,6-2.3,8.2,0v0
		C342.6,59.1,342.6,62.8,340.3,65.1z"/>
</g>
<g id="Ones">
	<g>
		<path class="st4" d="M475.7,89.7c0,8.7,7,15.7,15.7,15.7v-6.7c-5,0-9-4-9-9c0-5,4-9,9-9V74C482.7,74,475.7,81.1,475.7,89.7z"/>
		<path class="st4" d="M507.1,114.4c0-8.7-7-15.7-15.7-15.7v6.7c5,0,9,4,9,9c0,5-4,9-9,9v6.7C500.1,130.1,507.1,123.1,507.1,114.4z"
			/>
		<path class="st4" d="M475.7,139.1c0,8.7,7,15.7,15.7,15.7v-6.7c-5,0-9-4-9-9c0-5,4-9,9-9v-6.7
			C482.7,123.4,475.7,130.5,475.7,139.1z"/>
		<path class="st4" d="M475.7,188.6c0,8.7,7,15.7,15.7,15.7v-6.7c-5,0-9-4-9-9c0-5,4-9,9-9v-6.7
			C482.7,172.9,475.7,179.9,475.7,188.6z"/>
		<path class="st4" d="M507.1,163.9c0-8.7-7-15.7-15.7-15.7v6.7c5,0,9,4,9,9c0,5-4,9-9,9v6.7C500.1,179.6,507.1,172.5,507.1,163.9z"
			/>
		<path class="st4" d="M475.7,387.2c0,8.7,7,15.7,15.7,15.7v-6.7c-5,0-9-4-9-9c0-5,4-9,9-9v-6.7
			C482.7,371.5,475.7,378.5,475.7,387.2z"/>
		<path class="st4" d="M507.1,411.9c0-8.7-7-15.7-15.7-15.7v6.7c5,0,9,4,9,9c0,5-4,9-9,9v6.7C500.1,427.6,507.1,420.6,507.1,411.9z"
			/>
		<path class="st4" d="M475.7,436.6c0,8.7,7,15.7,15.7,15.7v-6.7c-5,0-9-4-9-9c0-5,4-9,9-9v-6.7C482.7,420.9,475.7,428,475.7,436.6z
			"/>
		<path class="st4" d="M475.7,486.1c0,8.7,7,15.7,15.7,15.7v-6.7c-5,0-9-4-9-9c0-5,4-9,9-9v-6.7
			C482.7,470.4,475.7,477.4,475.7,486.1z"/>
		<path class="st4" d="M507.1,461.4c0-8.7-7-15.7-15.7-15.7v6.7c5,0,9,4,9,9c0,5-4,9-9,9v6.7C500.1,477.1,507.1,470,507.1,461.4z"/>
	</g>
</g>
<g id="Text">
	<g id="No_Para">
		<path class="st0" d="M131.5,808.2h1.3v-46.6c0-1.2,0.1-2.3,0.2-3.4c0.1-1.1,0.5-2,1-2.8c0.5-0.8,1.3-1.4,2.2-1.9
			c1-0.5,2.3-0.7,4.1-0.7c1.9,0,3.4,0.2,4.5,0.7c1.1,0.5,1.9,1.1,2.5,1.9c0.6,0.8,0.9,1.7,1.1,2.8c0.1,1.1,0.2,2.2,0.2,3.4v56.9
			c0,1.6,0,3.2-0.1,4.8c-0.1,1.5-0.4,2.9-0.9,4.1c-0.5,1.2-1.3,2.2-2.5,2.9c-1.1,0.7-2.7,1.1-4.8,1.1h-7.4c-1.8,0-3.2-0.3-4.4-1
			c-1.2-0.7-2.2-1.5-2.9-2.5c-0.8-1-1.4-2-1.9-3.1c-0.5-1.1-0.8-2-1.1-2.8l-17-45.9h-1.3v46.6c0,1.2-0.1,2.3-0.2,3.4
			c-0.2,1.1-0.5,2-1,2.8c-0.5,0.8-1.3,1.4-2.2,1.9s-2.3,0.7-4.1,0.7c-1.9,0-3.5-0.2-4.6-0.7s-2-1.1-2.5-1.9
			c-0.6-0.8-0.9-1.7-1.1-2.8c-0.2-1.1-0.2-2.2-0.2-3.4v-56.9c0-1.6,0-3.2,0.1-4.7c0.1-1.6,0.4-2.9,0.9-4.2c0.5-1.2,1.4-2.2,2.5-2.9
			c1.1-0.7,2.8-1.1,4.9-1.1h7.4c1.9,0,3.4,0.4,4.6,1.1c1.2,0.7,2.1,1.5,2.9,2.4c0.8,1,1.5,2.2,2,3.5L131.5,808.2z"/>
		<path class="st0" d="M161.9,775c0-3.6,0.5-6.7,1.6-9.2c1-2.5,2.4-4.6,4-6.3c1.6-1.7,3.4-3,5.4-4c2-1,3.9-1.7,5.7-2.2
			c1.9-0.5,3.5-0.8,5-0.9c1.5-0.1,2.6-0.2,3.3-0.2h1.9c0.7,0,1.8,0.1,3.3,0.2c1.5,0.1,3.2,0.4,5,0.9c1.8,0.5,3.7,1.2,5.7,2.2
			c2,1,3.7,2.3,5.3,4c1.6,1.7,2.9,3.8,3.9,6.3c1,2.5,1.5,5.6,1.5,9.2v33.6c0,3.7-0.5,6.9-1.5,9.4c-1,2.6-2.3,4.7-3.9,6.5
			c-1.6,1.7-3.4,3.1-5.3,4.1c-2,1-3.9,1.7-5.7,2.2c-1.8,0.5-3.5,0.8-5,0.9c-1.5,0.1-2.6,0.2-3.3,0.2h-1.9c-0.7,0-1.8-0.1-3.3-0.2
			c-1.5-0.1-3.2-0.4-5-0.9c-1.9-0.5-3.8-1.2-5.7-2.2c-2-1-3.8-2.3-5.4-4.1c-1.6-1.7-3-3.9-4-6.5c-1-2.6-1.6-5.7-1.6-9.4V775z
			 M180.5,810.8c0.1,1.4,0.4,2.6,1,3.6c0.5,0.9,1.2,1.8,2.2,2.5c1,0.8,2.4,1.1,4.2,1.1c1.8,0,3.2-0.4,4.2-1.1c1-0.7,1.7-1.6,2.2-2.5
			c0.5-1,0.8-2.3,1-3.6v-36.6c-0.1-1.3-0.4-2.6-1-3.6c-0.5-0.9-1.2-1.7-2.2-2.5c-1-0.8-2.4-1.2-4.2-1.2c-1.8,0-3.2,0.4-4.2,1.2
			c-1,0.8-1.7,1.6-2.2,2.5c-0.6,1.1-0.9,2.3-1,3.6V810.8z"/>
		<path class="st0" d="M288.5,800.4v18.2c0,1.6,0,3.2-0.1,4.7c-0.1,1.5-0.4,2.9-1,4.1c-0.5,1.2-1.4,2.2-2.6,2.9
			c-1.2,0.7-2.8,1.1-5,1.1c-2.1,0-3.7-0.4-4.9-1.1c-1.1-0.7-2-1.7-2.5-2.9c-0.5-1.2-0.8-2.6-0.9-4.1c-0.1-1.5-0.1-3.1-0.1-4.7v-53
			c0-1.6,0-3.2,0.1-4.7c0.1-1.5,0.4-2.9,0.9-4.1c0.5-1.2,1.4-2.2,2.5-2.9c1.1-0.7,2.8-1.1,4.9-1.1h18.5c4.6,0.2,8.8,1.2,12.5,2.9
			c1.6,0.8,3.1,1.7,4.6,2.8c1.5,1.1,2.8,2.5,4,4.1c1.2,1.6,2.1,3.6,2.8,5.8c0.7,2.2,1.1,4.8,1.1,7.7c0,4-0.6,7.5-1.9,10.5
			c-1.3,3-3.1,5.5-5.4,7.6c-2.4,2-5.3,3.6-8.7,4.6c-3.4,1-7.3,1.5-11.6,1.5H288.5z M296.2,787.1c1.9-0.1,3.6-0.6,5.1-1.3
			c0.6-0.3,1.3-0.8,1.9-1.3c0.6-0.5,1.1-1.2,1.6-1.9c0.5-0.8,0.9-1.7,1.2-2.7c0.3-1,0.4-2.2,0.4-3.6c0-1.3-0.1-2.4-0.4-3.3
			c-0.3-1-0.6-1.8-1.1-2.5c-0.4-0.7-1-1.3-1.5-1.8c-0.6-0.5-1.1-0.9-1.7-1.2c-1.4-0.7-3-1.1-4.8-1.3h-8.2v21H296.2z"/>
		<path class="st0" d="M381.3,803c0.1,2.5,0.2,5.1,0.3,7.8c0.1,2.7,0.2,5.2,0.2,7.7v1.7c0,1.4,0,2.8-0.1,4.1
			c-0.1,1.3-0.4,2.5-0.9,3.6c-0.5,1.1-1.3,1.9-2.3,2.6c-1,0.6-2.5,1-4.4,1c-1.9,0-3.4-0.3-4.5-1c-1-0.6-1.8-1.5-2.3-2.5
			c-0.5-1-0.8-2.2-0.9-3.6c-0.1-1.3-0.1-2.7-0.1-4.2v-7.9h-22.5v7.9c0,1.4,0,2.8-0.1,4.2c-0.1,1.3-0.4,2.5-0.9,3.6
			c-0.5,1-1.3,1.9-2.3,2.5c-1,0.6-2.5,1-4.5,1c-1.9,0-3.4-0.3-4.5-1c-1-0.6-1.8-1.5-2.3-2.6c-0.5-1.1-0.8-2.3-0.8-3.6
			c-0.1-1.3-0.1-2.7-0.1-4.1v-1.7c0-1.2,0-2.4,0-3.7c0-1.3,0-2.6,0.1-4c0-1.3,0.1-2.7,0.1-4c0-1.3,0.1-2.6,0.1-3.8
			c1.9-6.5,3.8-13.1,5.9-19.8c2.1-6.7,4-13.3,5.9-19.8c0.4-1.4,0.8-2.7,1.3-4c0.5-1.3,1.2-2.4,2.1-3.4c0.9-1,2-1.7,3.3-2.3
			c1.3-0.6,3.1-0.9,5.2-0.9h5.6c2.1,0,3.8,0.3,5.1,0.9c1.4,0.6,2.5,1.3,3.3,2.3c0.9,1,1.5,2.1,2.1,3.4c0.5,1.3,1,2.6,1.4,4
			L381.3,803z M346,797.5h17.9l-8.3-30.1h-1.2L346,797.5z"/>
		<path class="st0" d="M393.5,765.6c0-1.6,0-3.2,0.1-4.7c0.1-1.5,0.4-2.9,0.9-4.1c0.5-1.2,1.4-2.2,2.5-2.9c1.1-0.7,2.8-1.1,4.9-1.1
			h18.5c4.6,0.2,8.7,1.2,12.4,2.9c1.5,0.8,3,1.7,4.5,2.8c1.5,1.1,2.8,2.5,4,4.1c1.2,1.6,2.1,3.5,2.8,5.8c0.7,2.2,1.1,4.8,1.1,7.7
			c0,0.6-0.1,1.4-0.2,2.4c-0.1,1-0.4,2.1-0.7,3.3c-0.4,1.2-0.9,2.4-1.5,3.7c-0.6,1.3-1.5,2.5-2.5,3.6c-1,1.2-2.3,2.2-3.8,3.2
			c-1.5,1-3.3,1.8-5.4,2.4c1.3,0.5,2.6,1.2,4,2c1.3,0.8,2.6,1.9,3.7,3.2c1.1,1.3,2,2.9,2.7,4.7c0.7,1.8,1,4,1,6.4v8
			c0,0.4,0.1,0.8,0.3,1.1c0.2,0.3,0.4,0.6,0.7,0.8c0.9,0.9,1.4,1.7,1.6,2.3c0.1,0.7,0.2,1.2,0.2,1.6c0,1.3-0.3,2.4-0.8,3.3
			c-0.5,0.9-1.2,1.6-2,2.2c-0.8,0.6-1.8,1-2.9,1.2c-1.1,0.2-2.2,0.4-3.3,0.4c-1.2,0-2.5-0.2-3.8-0.6c-1.3-0.4-2.4-1-3.5-1.7
			c-1-0.8-1.9-1.7-2.6-2.8c-0.7-1.1-1-2.4-1-3.9V811c0-1.6-0.1-3.2-0.3-4.5c-0.2-1.4-0.7-2.6-1.3-3.6c-0.6-1-1.5-1.8-2.6-2.4
			c-1.1-0.6-2.6-0.8-4.4-0.8h-6.3v18.8c0,1.6,0,3.3-0.1,4.8c-0.1,1.6-0.4,3-0.9,4.2c-0.5,1.2-1.4,2.2-2.5,2.9
			c-1.2,0.7-2.8,1.1-4.9,1.1c-2.1,0-3.7-0.4-4.9-1.1c-1.1-0.7-2-1.7-2.5-2.9c-0.5-1.2-0.8-2.6-0.9-4.2c-0.1-1.6-0.1-3.2-0.1-4.8
			V765.6z M418.1,787.1c1.9-0.1,3.6-0.5,5.1-1.3c0.6-0.3,1.3-0.8,1.9-1.3c0.6-0.5,1.1-1.2,1.6-2c0.5-0.8,0.9-1.7,1.2-2.8
			c0.3-1,0.4-2.3,0.4-3.7c0-1.2-0.1-2.3-0.4-3.3c-0.3-1-0.6-1.8-1.1-2.5c-0.4-0.7-1-1.3-1.5-1.8c-0.6-0.5-1.2-0.9-1.8-1.2
			c-1.4-0.7-3-1.1-4.8-1.2h-8.1v21H418.1z"/>
		<path class="st0" d="M506.7,803c0.1,2.5,0.2,5.1,0.3,7.8c0.1,2.7,0.2,5.2,0.2,7.7v1.7c0,1.4,0,2.8-0.1,4.1
			c-0.1,1.3-0.4,2.5-0.9,3.6c-0.5,1.1-1.3,1.9-2.3,2.6c-1,0.6-2.5,1-4.4,1c-1.9,0-3.4-0.3-4.5-1c-1-0.6-1.8-1.5-2.3-2.5
			c-0.5-1-0.8-2.2-0.9-3.6c-0.1-1.3-0.1-2.7-0.1-4.2v-7.9h-22.5v7.9c0,1.4,0,2.8-0.1,4.2c-0.1,1.3-0.4,2.5-0.9,3.6
			c-0.5,1-1.3,1.9-2.3,2.5c-1,0.6-2.5,1-4.5,1c-1.9,0-3.4-0.3-4.5-1c-1-0.6-1.8-1.5-2.3-2.6c-0.5-1.1-0.8-2.3-0.8-3.6
			c-0.1-1.3-0.1-2.7-0.1-4.1v-1.7c0-1.2,0-2.4,0-3.7c0-1.3,0-2.6,0.1-4c0-1.3,0.1-2.7,0.1-4c0-1.3,0.1-2.6,0.1-3.8
			c1.9-6.5,3.8-13.1,5.9-19.8c2.1-6.7,4-13.3,5.9-19.8c0.4-1.4,0.8-2.7,1.3-4c0.5-1.3,1.2-2.4,2.1-3.4c0.9-1,2-1.7,3.3-2.3
			s3.1-0.9,5.2-0.9h5.6c2.1,0,3.8,0.3,5.1,0.9c1.4,0.6,2.5,1.3,3.3,2.3c0.9,1,1.5,2.1,2.1,3.4c0.5,1.3,1,2.6,1.4,4L506.7,803z
			 M471.4,797.5h17.9l-8.3-30.1h-1.2L471.4,797.5z"/>
	</g>
	<g id="El_Canvi_1_">
		<path class="st0" d="M118.1,659.9c1.5,0,3,0.1,4.5,0.2c1.5,0.1,2.9,0.4,4.1,0.9c1.2,0.5,2.2,1.3,3,2.3s1.2,2.5,1.2,4.4
			c0,1.9-0.4,3.3-1.2,4.4c-0.8,1-1.8,1.8-3,2.3c-1.2,0.5-2.6,0.8-4.1,0.9c-1.5,0.1-3,0.2-4.5,0.2h-13.1v15h6.9c1.5,0,2.9,0,4.4,0.1
			c1.5,0.1,2.8,0.4,4,0.9c1.2,0.5,2.1,1.2,2.8,2.3c0.7,1,1.1,2.4,1.1,4.2c0,1.8-0.4,3.2-1.1,4.2c-0.7,1-1.7,1.7-2.8,2.2
			c-1.2,0.5-2.5,0.8-4,0.9c-1.5,0.1-3,0.1-4.4,0.1h-6.9v15.8h13.1c1.5,0,3,0.1,4.5,0.2c1.5,0.1,2.9,0.4,4.1,0.9
			c1.2,0.5,2.2,1.3,3,2.3s1.2,2.5,1.2,4.3c0,1.9-0.4,3.4-1.2,4.5c-0.8,1.1-1.8,1.9-3,2.4c-1.2,0.5-2.6,0.8-4.1,0.9
			c-1.5,0.1-3,0.2-4.4,0.2H96.6c-2.1,0-3.6-0.4-4.8-1.1c-1.1-0.7-1.9-1.7-2.4-2.9c-0.5-1.2-0.8-2.5-0.9-4c-0.1-1.5-0.1-3-0.1-4.6
			v-51.7c0-1.6,0-3.1,0.1-4.6c0.1-1.5,0.4-2.9,0.9-4c0.5-1.2,1.3-2.2,2.4-2.9c1.1-0.7,2.7-1.1,4.8-1.1H118.1z"/>
		<path class="st0" d="M144.1,672.5c0-1.6,0.1-3.1,0.2-4.6c0.1-1.5,0.5-2.9,1.1-4c0.6-1.2,1.4-2.2,2.5-2.9c1.1-0.7,2.6-1.1,4.6-1.1
			c2.1,0,3.7,0.4,4.9,1.1c1.2,0.7,2,1.7,2.6,2.9c0.6,1.2,0.9,2.5,1,4c0.1,1.5,0.2,3,0.2,4.6v48.2h10.8c1.5,0,3,0.1,4.5,0.2
			c1.5,0.1,2.8,0.5,3.9,1c1.2,0.6,2.1,1.4,2.8,2.4c0.7,1.1,1,2.5,1,4.3c0,1.9-0.3,3.3-1,4.4c-0.7,1.1-1.6,1.9-2.8,2.4
			c-1.2,0.6-2.5,0.9-3.9,1c-1.5,0.1-3,0.2-4.5,0.2h-15.6c-1.9,0-3.7-0.1-5.2-0.2c-1.5-0.1-2.8-0.5-3.8-1s-1.8-1.4-2.4-2.4
			s-0.8-2.6-0.8-4.4V672.5z"/>
		<path class="st0" d="M260.9,659.4c4,0,7.5,0.5,10.4,1.4c2.9,0.9,5.4,2.1,7.4,3.6c2,1.5,3.6,3.1,4.8,5c1.2,1.9,2.1,3.7,2.8,5.6
			c0.6,1.9,1.1,3.7,1.3,5.5c0.2,1.8,0.3,3.3,0.3,4.6c0,0.6,0,1.2-0.1,2c-0.1,0.8-0.4,1.5-1,2.3s-1.4,1.4-2.6,1.9
			c-1.2,0.5-2.9,0.8-5.1,0.8c-0.7,0-1.7,0-2.8-0.1c-1.1-0.1-2.2-0.3-3.2-0.7c-1-0.4-1.9-0.9-2.6-1.7c-0.7-0.7-1.1-1.7-1.1-3
			c0-2-0.1-3.8-0.4-5.3c-0.2-1.6-0.7-2.9-1.3-4c-0.6-1.1-1.5-1.9-2.6-2.5c-1.1-0.6-2.5-0.9-4.2-0.9c-1.8,0-3.2,0.4-4.2,1.1
			c-1,0.8-1.7,1.6-2.1,2.4c-0.5,1.1-0.8,2.3-0.9,3.6v34.9c0.1,1.6,0.4,3,0.9,4.2c0.4,1.1,1.1,2,2.1,2.9c1,0.9,2.4,1.3,4.2,1.3
			c1.7,0,3.1-0.4,4.2-1.1c1.1-0.7,2-1.7,2.6-2.9c0.6-1.2,1.1-2.6,1.3-4.2c0.2-1.6,0.4-3.2,0.4-5c0-0.6,0.1-1.1,0.3-1.7
			c0.2-0.6,0.6-1.1,1.3-1.6c0.7-0.5,1.6-0.9,2.9-1.2c1.3-0.3,3-0.5,5.2-0.5c2.2,0,3.9,0.2,5.1,0.7c1.2,0.5,2.1,1.1,2.6,1.7
			c0.6,0.6,0.9,1.3,1,1.9c0.1,0.6,0.1,1,0.1,1.2c0,4-0.7,7.6-2,10.8c-1.4,3.2-3.3,5.9-5.7,8.1c-2.5,2.2-5.4,3.9-8.9,5
			c-3.4,1.2-7.2,1.7-11.3,1.7c-0.7,0-1.7-0.1-3.2-0.2c-1.5-0.1-3.1-0.4-5-0.9c-1.8-0.5-3.7-1.2-5.7-2.1c-1.9-1-3.7-2.3-5.3-4
			c-1.6-1.7-2.9-3.8-3.9-6.4c-1-2.5-1.5-5.7-1.5-9.3v-30.7c0-3,0.4-5.7,1.1-8c0.7-2.3,1.7-4.3,2.9-6c1.2-1.7,2.6-3.1,4.1-4.3
			c1.5-1.2,3.1-2.1,4.7-2.9C251.8,660.7,256.1,659.7,260.9,659.4z"/>
		<path class="st0" d="M347.1,709.1c0.1,2.5,0.2,5,0.3,7.6c0.1,2.6,0.2,5.1,0.2,7.5v1.7c0,1.4,0,2.7-0.1,4s-0.4,2.5-0.9,3.5
			c-0.5,1-1.2,1.9-2.3,2.5c-1,0.6-2.5,0.9-4.3,0.9c-1.9,0-3.4-0.3-4.4-0.9c-1-0.6-1.8-1.4-2.3-2.5c-0.5-1-0.8-2.2-0.9-3.5
			c-0.1-1.3-0.1-2.7-0.1-4.1v-7.7h-22v7.7c0,1.4,0,2.8-0.1,4.1c-0.1,1.3-0.4,2.5-0.9,3.5c-0.5,1-1.3,1.9-2.3,2.5
			c-1,0.6-2.5,0.9-4.4,0.9c-1.9,0-3.4-0.3-4.4-0.9c-1-0.6-1.8-1.5-2.3-2.5c-0.5-1-0.8-2.2-0.8-3.5c-0.1-1.3-0.1-2.6-0.1-4v-1.7
			c0-1.1,0-2.3,0-3.6c0-1.3,0-2.6,0.1-3.9c0-1.3,0.1-2.6,0.1-3.9c0-1.3,0.1-2.5,0.1-3.7c1.8-6.4,3.8-12.8,5.8-19.4
			c2-6.5,3.9-13,5.8-19.4c0.4-1.4,0.8-2.7,1.3-3.9c0.5-1.3,1.2-2.4,2-3.3s1.9-1.7,3.2-2.3c1.3-0.6,3-0.9,5.1-0.9h5.5
			c2,0,3.7,0.3,5,0.9c1.3,0.6,2.4,1.3,3.3,2.3s1.5,2,2,3.3c0.5,1.3,0.9,2.6,1.3,3.9L347.1,709.1z M312.5,703.7H330l-8.1-29.5h-1.2
			L312.5,703.7z"/>
		<path class="st0" d="M401.4,714.1h1.3v-45.7c0-1.2,0.1-2.3,0.2-3.3s0.5-2,1-2.7c0.5-0.8,1.2-1.4,2.2-1.8c1-0.5,2.3-0.7,4-0.7
			c1.9,0,3.3,0.2,4.4,0.7c1.1,0.5,1.9,1.1,2.4,1.8c0.6,0.8,0.9,1.7,1,2.7c0.1,1,0.2,2.2,0.2,3.3v55.8c0,1.6,0,3.2-0.1,4.7
			c-0.1,1.5-0.4,2.9-0.9,4c-0.5,1.2-1.3,2.1-2.4,2.9s-2.7,1.1-4.7,1.1h-7.3c-1.7,0-3.2-0.3-4.3-1c-1.2-0.7-2.1-1.5-2.9-2.5
			c-0.8-1-1.4-2-1.8-3.1c-0.5-1.1-0.8-2-1.1-2.7l-16.6-45h-1.3v45.7c0,1.2-0.1,2.3-0.2,3.3c-0.1,1-0.5,2-1,2.7
			c-0.5,0.8-1.2,1.4-2.2,1.8c-1,0.5-2.3,0.7-4,0.7c-1.9,0-3.4-0.2-4.5-0.7c-1.1-0.5-1.9-1.1-2.5-1.8s-0.9-1.7-1-2.7
			c-0.1-1-0.2-2.2-0.2-3.3v-55.8c0-1.6,0-3.1,0.1-4.6c0.1-1.5,0.4-2.9,0.9-4.1c0.5-1.2,1.3-2.1,2.4-2.9s2.7-1.1,4.8-1.1h7.3
			c1.8,0,3.3,0.4,4.5,1.1c1.2,0.7,2.1,1.5,2.8,2.3c0.8,1,1.4,2.1,1.9,3.4L401.4,714.1z"/>
		<path class="st0" d="M471.7,659.9c1.1,0,2.1,0.2,3.1,0.6c1,0.4,1.9,0.9,2.6,1.5c0.8,0.6,1.3,1.4,1.8,2.2c0.4,0.9,0.7,1.8,0.7,2.8
			c0,0.5,0,0.9-0.1,1.3c-0.1,0.4-0.1,0.8-0.2,1.1c-0.1,0.4-0.2,0.8-0.3,1c-2.5,9.8-5.1,19.8-7.8,30s-5.3,20.1-7.8,29.9
			c-0.6,1.2-1.3,2.3-2.2,3.3c-0.8,0.8-1.8,1.6-3,2.3c-1.2,0.7-2.8,1-4.6,1h-1.8c-1.8,0-3.4-0.3-4.6-1c-1.2-0.7-2.3-1.4-3-2.3
			c-0.9-1-1.6-2.1-2.1-3.3l-15.6-59.9c-0.1-0.3-0.2-0.6-0.3-1c-0.2-0.7-0.3-1.6-0.3-2.5c0-1,0.2-1.9,0.6-2.8c0.4-0.9,1-1.6,1.7-2.2
			c0.7-0.6,1.6-1.1,2.6-1.5c1-0.4,2.1-0.6,3.2-0.6c1.8,0,3.2,0.4,4.3,1.2c1.1,0.8,1.9,1.6,2.6,2.6c0.7,1.1,1.2,2.3,1.5,3.7
			c0.4,1.8,0.9,3.7,1.4,6c0.5,2.2,1,4.5,1.5,6.9c0.5,2.4,1,4.8,1.6,7.3c0.5,2.5,1,4.9,1.5,7.2c1.1,5.4,2.3,11,3.4,16.7h1.8
			c1.2-5.7,2.5-11.2,3.6-16.7c0.5-2.3,1-4.7,1.5-7.2c0.5-2.5,1.1-4.9,1.6-7.3c0.5-2.4,1-4.7,1.5-6.9c0.5-2.2,0.9-4.2,1.3-6
			c0.4-1.4,0.9-2.6,1.6-3.7c0.6-1,1.5-1.8,2.5-2.6C468.5,660.3,469.9,659.9,471.7,659.9z"/>
		<path class="st0" d="M488.9,672.5c0-1.6,0.1-3.1,0.2-4.6s0.6-2.9,1.2-4c0.6-1.2,1.5-2.2,2.7-2.9c1.2-0.7,2.9-1.1,5-1.1
			s3.8,0.4,5,1.1c1.2,0.7,2.1,1.7,2.7,2.9c0.6,1.2,1,2.5,1.2,4s0.2,3,0.2,4.6v51.7c0,1.6-0.1,3.2-0.2,4.7c-0.1,1.5-0.5,2.9-1.1,4
			c-0.6,1.2-1.5,2.1-2.8,2.9c-1.2,0.7-2.9,1.1-5,1.1s-3.8-0.4-5-1.1c-1.2-0.7-2.1-1.7-2.7-2.9c-0.6-1.2-1-2.5-1.2-4
			s-0.2-3.1-0.2-4.7V672.5z"/>
	</g>
	<g id="Valencia">
		<path class="st14" d="M130.6,572.5c1,0,1.9,0.2,2.9,0.5c0.9,0.3,1.7,0.8,2.4,1.4c0.7,0.6,1.2,1.3,1.7,2.1c0.4,0.8,0.6,1.7,0.6,2.6
			c0,0.4,0,0.9-0.1,1.2c0,0.4-0.1,0.7-0.2,1c-0.1,0.4-0.2,0.7-0.3,1c-2.3,9.1-4.7,18.3-7.2,27.8c-2.5,9.4-4.9,18.7-7.2,27.7
			c-0.5,1.2-1.2,2.2-2,3.1c-0.7,0.8-1.6,1.5-2.8,2.1c-1.1,0.6-2.6,0.9-4.3,0.9h-1.6c-1.7,0-3.1-0.3-4.3-0.9
			c-1.2-0.6-2.1-1.3-2.8-2.1c-0.9-0.9-1.5-1.9-2-3.1l-14.5-55.5c-0.1-0.3-0.2-0.6-0.3-1c-0.2-0.7-0.3-1.4-0.3-2.3
			c0-0.9,0.2-1.8,0.6-2.6c0.4-0.8,0.9-1.5,1.6-2.1c0.7-0.6,1.5-1,2.4-1.4c0.9-0.3,1.9-0.5,3-0.5c1.6,0,2.9,0.4,4,1.1
			c1,0.7,1.8,1.5,2.4,2.4c0.6,1,1.1,2.2,1.4,3.5c0.4,1.6,0.8,3.5,1.3,5.5c0.5,2.1,1,4.2,1.4,6.4c0.5,2.2,1,4.5,1.5,6.8
			c0.5,2.3,1,4.5,1.4,6.7c1.1,5,2.1,10.2,3.2,15.5h1.6c1.2-5.3,2.3-10.4,3.4-15.5c0.4-2.1,0.9-4.4,1.4-6.7c0.5-2.3,1-4.5,1.5-6.8
			c0.5-2.2,0.9-4.3,1.4-6.4c0.4-2.1,0.8-3.9,1.2-5.5c0.3-1.3,0.8-2.4,1.5-3.5c0.6-0.9,1.4-1.7,2.3-2.4
			C127.6,572.9,128.9,572.5,130.6,572.5z"/>
		<path class="st0" d="M190.6,618.1c0.1,2.3,0.2,4.7,0.3,7.1c0.1,2.4,0.2,4.7,0.2,7v1.5c0,1.3,0,2.5-0.1,3.7
			c-0.1,1.2-0.3,2.3-0.8,3.3c-0.4,1-1.1,1.7-2.1,2.3c-1,0.6-2.3,0.9-4,0.9c-1.8,0-3.1-0.3-4.1-0.9c-1-0.6-1.7-1.3-2.1-2.3
			c-0.5-1-0.7-2-0.8-3.3c-0.1-1.2-0.1-2.5-0.1-3.8v-7.1h-20.4v7.1c0,1.3,0,2.6-0.1,3.8c-0.1,1.2-0.4,2.3-0.8,3.3
			c-0.5,1-1.2,1.7-2.1,2.3c-1,0.6-2.3,0.9-4.1,0.9c-1.8,0-3.1-0.3-4.1-0.9c-1-0.6-1.6-1.4-2.1-2.3c-0.4-1-0.7-2.1-0.8-3.3
			c-0.1-1.2-0.1-2.5-0.1-3.7v-1.5c0-1.1,0-2.2,0-3.4c0-1.2,0-2.4,0.1-3.6c0-1.2,0.1-2.4,0.1-3.6c0-1.2,0.1-2.4,0.1-3.4
			c1.7-5.9,3.5-11.9,5.4-18c1.9-6.1,3.7-12.1,5.4-18c0.3-1.3,0.7-2.5,1.2-3.6c0.5-1.2,1.1-2.2,1.9-3.1c0.8-0.9,1.8-1.6,3-2.1
			c1.2-0.5,2.8-0.8,4.7-0.8h5.1c1.9,0,3.4,0.3,4.7,0.8c1.2,0.5,2.3,1.2,3,2.1c0.8,0.9,1.4,1.9,1.9,3.1c0.5,1.2,0.9,2.4,1.2,3.6
			L190.6,618.1z M158.6,613.1h16.2l-7.5-27.3h-1.1L158.6,613.1z"/>
		<path class="st7" d="M203.9,584.2c0-1.5,0.1-2.9,0.2-4.3c0.1-1.4,0.5-2.6,1-3.7c0.5-1.1,1.3-2,2.3-2.7c1-0.7,2.4-1,4.2-1
			c1.9,0,3.5,0.3,4.5,1c1.1,0.7,1.9,1.6,2.4,2.7c0.5,1.1,0.8,2.4,0.9,3.7c0.1,1.4,0.2,2.8,0.2,4.3v44.7h10c1.4,0,2.8,0.1,4.1,0.2
			c1.4,0.1,2.6,0.5,3.6,1c1.1,0.5,1.9,1.3,2.6,2.2c0.6,1,1,2.3,1,4c0,1.7-0.3,3.1-1,4.1c-0.6,1-1.5,1.8-2.6,2.3
			c-1.1,0.5-2.3,0.8-3.6,1c-1.4,0.1-2.7,0.2-4.1,0.2h-14.5c-1.8,0-3.4-0.1-4.8-0.2c-1.4-0.1-2.6-0.5-3.5-1c-1-0.5-1.7-1.3-2.2-2.3
			c-0.5-1-0.8-2.4-0.8-4.1V584.2z"/>
		<path class="st0" d="M279,572.5c1.4,0,2.7,0.1,4.1,0.2c1.4,0.1,2.7,0.5,3.8,1c1.1,0.5,2,1.3,2.8,2.3c0.7,1,1.1,2.4,1.1,4.1
			c0,1.7-0.4,3.1-1.1,4.1c-0.7,1-1.6,1.8-2.8,2.3c-1.1,0.5-2.4,0.8-3.8,1c-1.4,0.1-2.8,0.2-4.1,0.2h-12.1v13.3h6.4
			c1.4,0,2.7,0,4.1,0.1c1.4,0.1,2.6,0.4,3.7,0.8c1.1,0.5,1.9,1.2,2.6,2.1c0.7,0.9,1,2.2,1,3.9c0,1.7-0.3,3-1,3.9
			c-0.7,0.9-1.6,1.6-2.6,2.1c-1.1,0.5-2.3,0.7-3.7,0.8c-1.4,0.1-2.7,0.1-4.1,0.1h-6.4v14.1H279c1.4,0,2.7,0.1,4.1,0.2
			c1.4,0.1,2.7,0.5,3.8,1c1.1,0.5,2,1.3,2.8,2.2c0.7,1,1.1,2.3,1.1,4c0,1.8-0.4,3.2-1.1,4.2c-0.7,1-1.7,1.8-2.8,2.3
			c-1.1,0.5-2.4,0.8-3.8,1c-1.4,0.1-2.8,0.2-4.1,0.2h-20c-1.9,0-3.4-0.3-4.4-1c-1-0.7-1.8-1.6-2.3-2.7c-0.5-1.1-0.8-2.4-0.8-3.7
			c-0.1-1.4-0.1-2.8-0.1-4.3v-47.9c0-1.5,0-2.9,0.1-4.3c0.1-1.4,0.4-2.6,0.8-3.7c0.5-1.1,1.2-2,2.3-2.7c1-0.7,2.5-1,4.4-1H279z
			 M278.5,557.4c0.5,0.3,1,0.9,1.5,1.7c0.5,0.8,0.8,1.7,0.8,2.7c0,0.5-0.1,1-0.3,1.6c-0.2,0.6-0.5,1.1-0.9,1.7
			c-0.7,1-1.4,1.6-2.2,1.9c-0.8,0.3-1.7,0.4-2.6,0.4c-0.5,0-1-0.1-1.6-0.2c-0.5-0.1-1-0.3-1.5-0.6l-11.2-6.8
			c-0.7-0.5-1.3-1.1-1.8-1.9c-0.5-0.8-0.8-1.6-0.8-2.5c0-0.5,0.1-1,0.3-1.6c0.2-0.6,0.5-1.2,0.9-1.8c0.7-1,1.5-1.6,2.4-1.9
			c0.9-0.3,1.8-0.4,2.7-0.4c1,0,1.9,0.3,2.9,0.9L278.5,557.4z"/>
		<path class="st12" d="M341.2,622.8h1.2v-42.3c0-1.1,0.1-2.1,0.2-3.1c0.1-1,0.4-1.8,0.9-2.5c0.5-0.7,1.1-1.3,2-1.7
			c0.9-0.4,2.1-0.6,3.7-0.6c1.7,0,3.1,0.2,4.1,0.6c1,0.4,1.8,1,2.3,1.7c0.5,0.7,0.8,1.6,1,2.5c0.1,1,0.2,2,0.2,3.1v51.7
			c0,1.5,0,2.9-0.1,4.3c-0.1,1.4-0.4,2.6-0.8,3.7c-0.5,1.1-1.2,2-2.2,2.7c-1,0.7-2.5,1-4.4,1h-6.7c-1.6,0-2.9-0.3-4-0.9
			c-1.1-0.6-2-1.4-2.7-2.3c-0.7-0.9-1.3-1.8-1.7-2.8c-0.4-1-0.8-1.8-1-2.5l-15.4-41.7h-1.2V636c0,1.1-0.1,2.1-0.2,3.1
			c-0.1,1-0.4,1.8-0.9,2.5c-0.5,0.7-1.1,1.3-2,1.7c-0.9,0.4-2.1,0.6-3.7,0.6c-1.8,0-3.2-0.2-4.2-0.6c-1-0.4-1.8-1-2.3-1.7
			c-0.5-0.7-0.8-1.6-1-2.5c-0.1-1-0.2-2-0.2-3.1v-51.7c0-1.5,0-2.9,0.1-4.3s0.4-2.7,0.8-3.8c0.5-1.1,1.2-2,2.3-2.7
			c1-0.7,2.5-1,4.4-1h6.7c1.7,0,3.1,0.3,4.2,1c1.1,0.7,1.9,1.4,2.6,2.2c0.7,0.9,1.3,2,1.8,3.2L341.2,622.8z"/>
		<path class="st0" d="M392.2,572.1c3.7,0,7,0.4,9.7,1.3c2.7,0.9,5,2,6.8,3.3c1.9,1.4,3.3,2.9,4.5,4.6c1.1,1.7,2,3.5,2.6,5.2
			c0.6,1.8,1,3.5,1.2,5.1c0.2,1.6,0.3,3,0.3,4.2c0,0.5,0,1.1-0.1,1.9c-0.1,0.7-0.4,1.4-0.9,2.1c-0.5,0.7-1.3,1.3-2.4,1.7
			c-1.1,0.5-2.7,0.7-4.7,0.7c-0.7,0-1.5,0-2.6-0.1c-1-0.1-2-0.3-3-0.7c-1-0.4-1.8-0.9-2.4-1.5c-0.7-0.7-1-1.6-1-2.8
			c0-1.8-0.1-3.5-0.3-4.9c-0.2-1.5-0.6-2.7-1.2-3.7c-0.6-1-1.4-1.8-2.4-2.3c-1-0.5-2.3-0.8-3.9-0.8c-1.7,0-3,0.3-3.9,1
			c-0.9,0.7-1.6,1.5-2,2.3c-0.5,1-0.7,2.1-0.8,3.3v32.3c0.1,1.5,0.3,2.8,0.8,3.9c0.4,1,1.1,1.9,2,2.7c0.9,0.8,2.2,1.2,3.9,1.2
			c1.6,0,2.9-0.3,3.9-1c1-0.7,1.8-1.6,2.4-2.7c0.6-1.1,1-2.4,1.2-3.9c0.2-1.5,0.3-3,0.3-4.6c0-0.5,0.1-1,0.3-1.6
			c0.2-0.5,0.6-1,1.2-1.5c0.6-0.5,1.5-0.8,2.7-1.1c1.2-0.3,2.8-0.5,4.8-0.5c2,0,3.6,0.2,4.7,0.7c1.1,0.5,1.9,1,2.4,1.6
			c0.5,0.6,0.8,1.2,0.9,1.7c0.1,0.6,0.1,0.9,0.1,1.1c0,3.7-0.6,7.1-1.9,10c-1.3,2.9-3,5.4-5.3,7.5c-2.3,2-5,3.6-8.2,4.7
			c-3.2,1.1-6.7,1.6-10.5,1.6c-0.6,0-1.6-0.1-3-0.2c-1.4-0.1-2.9-0.4-4.6-0.8c-1.7-0.4-3.5-1.1-5.3-2c-1.8-0.9-3.4-2.1-4.9-3.7
			c-1.5-1.6-2.7-3.6-3.6-5.9c-1-2.4-1.4-5.2-1.4-8.6v-28.5c0-2.8,0.3-5.3,1-7.4c0.7-2.1,1.6-4,2.7-5.6c1.1-1.6,2.4-2.9,3.8-4
			c1.4-1.1,2.9-2,4.4-2.7C383.8,573.3,387.8,572.3,392.2,572.1z"/>
		<path class="st7" d="M429,584.2c0-1.5,0.1-2.9,0.2-4.3c0.2-1.4,0.5-2.6,1.1-3.7c0.6-1.1,1.4-2,2.5-2.7c1.1-0.7,2.7-1,4.6-1
			s3.5,0.3,4.6,1c1.1,0.7,2,1.6,2.5,2.7c0.6,1.1,0.9,2.4,1.1,3.7c0.2,1.4,0.2,2.8,0.2,4.3v47.9c0,1.5-0.1,2.9-0.2,4.3
			c-0.1,1.4-0.5,2.6-1,3.7c-0.6,1.1-1.4,2-2.6,2.7c-1.1,0.7-2.7,1-4.7,1s-3.5-0.3-4.6-1c-1.1-0.7-2-1.5-2.5-2.7
			c-0.6-1.1-0.9-2.4-1.1-3.7c-0.2-1.4-0.2-2.8-0.2-4.3V584.2z"/>
		<path class="st5" d="M506.6,618.1c0.1,2.3,0.2,4.7,0.3,7.1c0.1,2.4,0.2,4.7,0.2,7v1.5c0,1.3,0,2.5-0.1,3.7
			c-0.1,1.2-0.4,2.3-0.8,3.3c-0.4,1-1.1,1.7-2.1,2.3c-1,0.6-2.3,0.9-4,0.9c-1.8,0-3.1-0.3-4.1-0.9c-1-0.6-1.7-1.3-2.1-2.3
			c-0.5-1-0.7-2-0.8-3.3s-0.1-2.5-0.1-3.8v-7.1h-20.4v7.1c0,1.3,0,2.6-0.1,3.8s-0.4,2.3-0.8,3.3c-0.5,1-1.2,1.7-2.1,2.3
			c-1,0.6-2.3,0.9-4.1,0.9s-3.1-0.3-4.1-0.9c-1-0.6-1.6-1.4-2.1-2.3c-0.4-1-0.7-2.1-0.8-3.3c-0.1-1.2-0.1-2.5-0.1-3.7v-1.5
			c0-1.1,0-2.2,0-3.4c0-1.2,0-2.4,0.1-3.6c0-1.2,0.1-2.4,0.1-3.6c0-1.2,0.1-2.4,0.1-3.4c1.7-5.9,3.5-11.9,5.4-18
			c1.9-6.1,3.7-12.1,5.4-18c0.3-1.3,0.7-2.5,1.2-3.6c0.5-1.2,1.1-2.2,1.9-3.1c0.8-0.9,1.8-1.6,3-2.1c1.2-0.5,2.8-0.8,4.7-0.8h5.1
			c1.9,0,3.4,0.3,4.7,0.8c1.2,0.5,2.3,1.2,3,2.1c0.8,0.9,1.4,1.9,1.9,3.1c0.5,1.2,0.9,2.4,1.2,3.6L506.6,618.1z M474.5,613.1h16.2
			l-7.5-27.3h-1.1L474.5,613.1z"/>
	</g>
</g>
<g id="Regles">
	<g class="st15">
		<path class="st16" d="M283.2,311.4c-1.2,0-2.2-1-2.2-2.2V290c0-1.2,1-2.2,2.2-2.2s2.2,1,2.2,2.2v19.2
			C285.4,310.5,284.4,311.4,283.2,311.4z"/>
	</g>
	<g class="st15">
		<path class="st17" d="M296,292.2h-12.8c-1.2,0-2.2-1-2.2-2.2s1-2.2,2.2-2.2H296c1.2,0,2.2,1,2.2,2.2S297.2,292.2,296,292.2z"/>
	</g>
	<g class="st15">
		<path class="st18" d="M296,311.4h-12.8c-1.2,0-2.2-1-2.2-2.2s1-2.2,2.2-2.2H296c1.2,0,2.2,1,2.2,2.2S297.2,311.4,296,311.4z"/>
	</g>
	<g class="st15">
		<path class="st19" d="M294.1,301.8h-10.9c-1.2,0-2.2-1-2.2-2.2s1-2.2,2.2-2.2h10.9c1.2,0,2.2,1,2.2,2.2S295.3,301.8,294.1,301.8z"
			/>
	</g>
	<g class="st15">
		<path class="st19" d="M294.5,286l-11.5-4.1c-1.3-0.5-2-1.8-1.6-2.9c0.4-1.1,1.8-1.7,3.1-1.2l11.5,4.1c1.3,0.5,2,1.8,1.6,2.9
			C297.2,286,295.8,286.5,294.5,286z"/>
	</g>
	<g class="st15">
		<g class="st20">
			<path class="st21" d="M236.5,311.4c-0.3,0-0.7-0.1-1-0.2c-1.1-0.6-1.5-1.9-1-3l9.8-19.2c0.6-1.1,1.9-1.5,3-1c1.1,0.6,1.5,1.9,1,3
				l-9.8,19.2C238.1,311,237.3,311.4,236.5,311.4z"/>
		</g>
		<g class="st20">
			<path class="st22" d="M256,311.4c-0.8,0-1.6-0.4-2-1.2l-9.8-19.2c-0.6-1.1-0.1-2.4,1-3c1.1-0.6,2.4-0.1,3,1l9.8,19.2
				c0.6,1.1,0.1,2.4-1,3C256.7,311.4,256.3,311.4,256,311.4z"/>
		</g>
	</g>
	<g class="st15">
		<path class="st17" d="M253.8,307.2h-15.2c-1.2,0-2.2-1-2.2-2.2c0-1.2,1-2.2,2.2-2.2h15.2c1.2,0,2.2,1,2.2,2.2
			C256,306.2,255.1,307.2,253.8,307.2z"/>
	</g>
	<g class="st15">
		<g class="st20">
			<path class="st21" d="M361,311.4c-0.3,0-0.7-0.1-1-0.2c-1.1-0.6-1.5-1.9-1-3l9.8-19.2c0.6-1.1,1.9-1.5,3-1c1.1,0.6,1.5,1.9,1,3
				l-9.8,19.2C362.5,311,361.8,311.4,361,311.4z"/>
		</g>
		<g class="st20">
			<path class="st22" d="M380.5,311.4c-0.8,0-1.6-0.4-2-1.2l-9.8-19.2c-0.6-1.1-0.1-2.4,1-3c1.1-0.6,2.4-0.1,3,1l9.8,19.2
				c0.6,1.1,0.1,2.4-1,3C381.2,311.4,380.8,311.4,380.5,311.4z"/>
		</g>
	</g>
	<g class="st15">
		<path class="st17" d="M378.3,307.2h-15.2c-1.2,0-2.2-1-2.2-2.2c0-1.2,1-2.2,2.2-2.2h15.2c1.2,0,2.2,1,2.2,2.2
			C380.5,306.2,379.5,307.2,378.3,307.2z"/>
	</g>
	<g class="st15">
		<path class="st16" d="M328.1,301.3c-1.2,0-2.2-1-2.2-2.2c0-6.7,5.5-12.2,12.2-12.2c1.2,0,2.2,1,2.2,2.2s-1,2.2-2.2,2.2
			c-4.3,0-7.8,3.5-7.8,7.8C330.3,300.3,329.3,301.3,328.1,301.3z"/>
	</g>
	<g class="st15">
		<path class="st19" d="M338.1,311.3c-6.7,0-12.2-5.5-12.2-12.2c0-1.2,1-2.2,2.2-2.2s2.2,1,2.2,2.2c0,4.3,3.5,7.8,7.8,7.8
			c1.2,0,2.2,1,2.2,2.2S339.3,311.3,338.1,311.3z"/>
	</g>
	<g class="st15">
		<path class="st17" d="M338.1,311.3c-1.2,0-2.2-1-2.2-2.2s1-2.2,2.2-2.2c2,0,3.9-0.7,5.3-2.1c0.9-0.8,2.3-0.8,3.1,0.1
			c0.8,0.9,0.8,2.3-0.1,3.1C344.1,310.1,341.2,311.3,338.1,311.3z"/>
	</g>
	<g class="st15">
		<path class="st18" d="M345,294.1c-0.6,0-1.1-0.2-1.5-0.6c-1.5-1.4-3.4-2.2-5.4-2.2c-1.2,0-2.2-1-2.2-2.2s1-2.2,2.2-2.2
			c3.2,0,6.2,1.2,8.5,3.4c0.9,0.8,0.9,2.2,0.1,3.1C346.1,293.9,345.6,294.1,345,294.1z"/>
	</g>
	<g class="st15">
		<g class="st20">
			<path class="st21" d="M-849.5,381.4c-11.8,0-21.4-9.6-21.4-21.4c0-65.2,53.1-118.3,118.3-118.3c11.8,0,21.4,9.6,21.4,21.4
				s-9.6,21.4-21.4,21.4c-41.6,0-75.4,33.8-75.4,75.4C-828,371.8-837.6,381.4-849.5,381.4z"/>
		</g>
		<g class="st20">
			<path class="st23" d="M-752.6,478.3c-65.2,0-118.3-53.1-118.3-118.3c0-11.8,9.6-21.4,21.4-21.4s21.4,9.6,21.4,21.4
				c0,41.6,33.8,75.4,75.4,75.4c11.8,0,21.4,9.6,21.4,21.4S-740.7,478.3-752.6,478.3z"/>
		</g>
		<g class="st20">
			<path class="st24" d="M-752.6,478.3c-11.8,0-21.4-9.6-21.4-21.4s9.6-21.4,21.4-21.4c19.2,0,37.6-7.2,51.6-20.4
				c8.6-8.1,22.2-7.7,30.3,1c8.1,8.6,7.7,22.2-1,30.3C-693.6,466.9-722.4,478.3-752.6,478.3z"/>
		</g>
		<g class="st20">
			<path class="st22" d="M-685.4,311.6c-5.3,0-10.7-2-14.9-6c-14.1-13.6-32.7-21.1-52.3-21.1c-11.8,0-21.4-9.6-21.4-21.4
				s9.6-21.4,21.4-21.4c30.7,0,59.9,11.7,82,33.1c8.5,8.2,8.8,21.8,0.6,30.3C-674.2,309.4-679.8,311.6-685.4,311.6z"/>
		</g>
	</g>
	<g class="st15">
		<path class="st19" d="M320.1,311.4c-0.6,0-1.2-0.3-1.7-0.8l-16.3-19.2c-0.8-0.9-0.7-2.3,0.3-3.1c0.9-0.8,2.3-0.7,3.1,0.3
			l16.3,19.2c0.8,0.9,0.7,2.3-0.3,3.1C321.1,311.3,320.6,311.4,320.1,311.4z"/>
	</g>
	<g class="st15">
		<path class="st18" d="M320.1,311.4c-1.2,0-2.2-1-2.2-2.2V290c0-1.2,1-2.2,2.2-2.2s2.2,1,2.2,2.2v19.2
			C322.3,310.5,321.4,311.4,320.1,311.4z"/>
	</g>
	<g class="st15">
		<path class="st17" d="M303.8,311.4c-1.2,0-2.2-1-2.2-2.2V290c0-1.2,1-2.2,2.2-2.2c1.2,0,2.2,1,2.2,2.2v19.2
			C306,310.5,305,311.4,303.8,311.4z"/>
	</g>
	<g class="st15">
		<path class="st17" d="M352.9,311.4c-1.2,0-2.2-1-2.2-2.2V290c0-1.2,1-2.2,2.2-2.2s2.2,1,2.2,2.2v19.2
			C355.1,310.4,354.2,311.4,352.9,311.4z"/>
	</g>
	<g class="st15">
		<path class="st18" d="M263.9,311.4c-1.2,0-2.2-1-2.2-2.2V290c0-1.2,1-2.2,2.2-2.2s2.2,1,2.2,2.2v19.2
			C266.1,310.4,265.1,311.4,263.9,311.4z"/>
	</g>
	<g class="st15">
		<path class="st17" d="M275.3,311.4h-11.4c-1.2,0-2.2-1-2.2-2.2c0-1.2,1-2.2,2.2-2.2h11.4c1.2,0,2.2,1,2.2,2.2
			C277.5,310.4,276.5,311.4,275.3,311.4z"/>
	</g>
	<g class="st15">
		<g class="st20">
			<path class="st22" d="M611.9,519.5c-7.7,0-14-6.3-14-14V383.7c0-7.7,6.3-14,14-14c7.7,0,14,6.3,14,14v121.8
				C625.9,513.2,619.7,519.5,611.9,519.5z"/>
		</g>
		<g class="st20">
			<path class="st24" d="M684,519.5h-72.1c-7.7,0-14-6.3-14-14c0-7.7,6.3-14,14-14H684c7.7,0,14,6.3,14,14
				C698,513.2,691.8,519.5,684,519.5z"/>
		</g>
	</g>
	<g class="st15">
		<path class="st19" d="M221.6,311.5c-0.8,0-1.6-0.5-2-1.3l-8.9-19.2c-0.5-1.1,0-2.4,1.1-2.9c1.1-0.5,2.4,0,2.9,1.1l8.9,19.2
			c0.5,1.1,0,2.4-1.1,2.9C222.2,311.4,221.9,311.5,221.6,311.5z"/>
	</g>
	<g class="st15">
		<path class="st16" d="M221.6,311.5c-0.3,0-0.6-0.1-0.9-0.2c-1.1-0.5-1.6-1.8-1.1-2.9l8.9-19.2c0.5-1.1,1.8-1.6,2.9-1.1
			c1.1,0.5,1.6,1.8,1.1,2.9l-8.9,19.2C223.2,311,222.4,311.5,221.6,311.5z"/>
	</g>
</g>
</svg>
